<svg width="144" height="56" viewBox="0 0 144 56" fill="none" xmlns="http://www.w3.org/2000/svg">
<path d="M87.6016 15.041L87.7106 26.2127L88.6915 26.2399V16.3762L87.6016 15.041Z" fill="#F6E3C1"/>
<path d="M40.2992 19.9725L31.8796 6.45752L21.5254 6.92073L28.5281 20.1905C30.9259 20.1632 35.2584 20.1087 40.2992 19.9725Z" fill="#F6E3C1"/>
<path d="M64.1127 18.6374L56.2653 5.36768L44.2217 5.91263L51.8783 19.5366C56.3198 19.2914 60.6249 19.0189 64.1127 18.6374Z" fill="#F6E3C1"/>
<path d="M22.1267 25.9404L19.5109 20.627L19.5654 25.9131H17.1676L17.0586 16.3491L17.1676 25.9131L22.1267 25.9404Z" fill="#F6E3C1"/>
<path d="M0 49.4004L0.299727 54.3323H9.53678L8.52861 48.9917L0 49.4004Z" fill="#C0C1C3"/>
<path d="M6.78516 7.57452L7.60259 25.8579H8.74701L8.2293 7.52002L6.78516 7.57452Z" fill="#F6E3C1"/>
<path d="M77.9844 49.6458V49.0736L77.8481 44.6049L75.2323 44.5776L40.1642 48.7466L46.2405 49.2098L27.9844 51.2806V52.97L49.9462 49.8365L68.938 50L77.4667 49.673L77.9844 49.6458Z" fill="#CECECE" fill-opacity="0.6"/>
<path d="M77.5211 50.0816L77.4666 49.6729L68.938 49.9998L67.957 50.0543L68.2568 55.3677L78.3112 55.3404L77.5211 50.0816Z" fill="#C0C1C3"/>
<path d="M86.4844 44.7139L86.5116 49.346L97.6833 49.1008V50.2452L102.397 50.2997L97.6833 51.0899V52.8065L111.117 51.0354L122.561 51.5531L143.269 45.3678L86.4844 44.7139Z" fill="#CECECE" fill-opacity="0.6"/>
<path d="M8.0918 2.83365L8.22804 7.52029L8.74575 25.8582L9.42695 48.7464H14.1136L14.1408 25.8854L14.1953 9.75463V7.24781V2.04346L8.0918 2.83365Z" fill="#C0C1C3"/>
<path d="M19.4 7.02989L19.509 20.6266L22.1248 25.94L27.0567 25.9672C26.8659 23.1879 26.648 20.9536 26.6207 20.1906C26.7842 20.1906 27.4654 20.1906 28.5553 20.1906L21.5253 6.9209L17.9014 7.08439L19.4 7.02989Z" fill="#CE743B"/>
<path d="M51.8798 19.5371L44.2231 5.91309L31.8525 6.45804L40.2722 19.973C43.9506 19.864 47.9561 19.7278 51.8798 19.5371Z" fill="#CE743B"/>
<path d="M68.3384 18.0383C68.8289 19.7822 69.2376 22.3162 69.4556 26.1582H69.4828C69.4828 25.9402 69.2376 20.8176 68.3929 18.0655C70.2458 19.21 70.8997 25.3135 70.927 26.1854L77.303 26.2127L77.1395 20.7903L67.085 4.90479L56.2676 5.39525L64.115 18.665C65.7226 18.447 67.1395 18.2563 68.3384 18.0383Z" fill="#CE743B"/>
<path d="M86.2146 13.3244L86.1328 4.03282L87.4952 3.97832L87.6042 15.041L88.6941 16.3761V3.92383L86.1328 4.03282L86.2146 13.3244Z" fill="#CE743B"/>
<path d="M88.6934 3.92413V16.3764V26.2402L92.2083 26.2674L92.3446 20.8451L92.7261 3.7334L88.6934 3.92413Z" fill="#909193"/>
<path d="M26.2956 51.471L25.6689 53.2966L27.985 52.9696V51.2803L26.2956 51.471Z" fill="#909193"/>
<path d="M27.9843 51.2804V48.4194L17.4121 48.7736L17.1669 25.9126L17.0579 16.3485V15.5856L16.9489 7.13873V7.11148L16.8944 2.88805L14.3876 2.01611L14.1969 2.04336V7.24772V9.75453L14.1424 25.8853L14.1151 48.7463H9.42848V48.9371L8.5293 48.9916L9.53747 54.3322L27.9571 54.2777L27.9843 52.9698L25.6683 53.2967L26.295 51.4711L27.9843 51.2804Z" fill="#909193"/>
<path d="M86.5131 49.346L86.4859 44.7139L86.3224 26.2398V26.2125L86.2679 19.0736L86.2134 13.3242L86.1316 4.0327L86.1044 1.08992L83.2161 0H83.1616L83.1344 4.16894V9.56403L83.1071 26.2125L83.0799 44.6866V49.564L77.9845 49.6458L77.4668 49.673L77.5213 50.0817L78.3115 55.3406L97.6848 55.3133V52.8065V51.0899V50.2452V49.1008L86.5131 49.346Z" fill="#909193"/>
<path opacity="0.3" d="M17.9029 7.08447L16.9492 7.11172V7.13897L17.9029 7.08447Z" fill="#4F4F4F"/>
<path d="M17.1676 25.9129H19.5654L19.5109 20.6268L17.0586 15.5859V16.3489L17.1676 25.9129Z" fill="#C9BAA4"/>
<path d="M17.0582 15.5861L19.5105 20.627L19.4015 7.03027L17.9029 7.08477L16.9492 7.13927L17.0582 15.5861Z" fill="#CE743B"/>
<path opacity="0.3" d="M17.0582 15.5861L19.5105 20.627L19.4015 7.03027L17.9029 7.08477L16.9492 7.13927L17.0582 15.5861Z" fill="#4F4F4F"/>
<path d="M17.0582 15.586L16.9492 7.13916L17.0582 15.586Z" fill="#909193"/>
<path opacity="0.3" d="M17.0582 15.586L16.9492 7.13916L17.0582 15.586Z" fill="#4F4F4F"/>
<path d="M86.3229 26.2125H87.7125L87.6035 15.0408L86.2139 13.3242L86.2684 19.0735L86.3229 26.2125Z" fill="#C9BAA4"/>
<path d="M87.4952 3.97852L86.1328 4.03301L86.2146 13.3246L87.6042 15.0412L87.4952 3.97852Z" fill="#CE743B"/>
<path opacity="0.3" d="M87.4952 3.97852L86.1328 4.03301L86.2146 13.3246L87.6042 15.0412L87.4952 3.97852Z" fill="#4F4F4F"/>
<path d="M86.3211 26.2122L86.2666 19.0732L86.3211 26.2122Z" fill="#909193"/>
<path opacity="0.3" d="M86.3211 26.2122L86.2666 19.0732L86.3211 26.2122Z" fill="#4F4F4F"/>
<path d="M69.4553 26.158C69.2645 22.316 68.8286 19.782 68.3381 18.0381C67.1392 18.2561 65.7223 18.4468 64.1147 18.6375C60.6269 19.019 56.3218 19.3187 51.8803 19.5367C47.9566 19.7275 43.9512 19.8909 40.3 19.9727C35.2591 20.1089 30.9267 20.1634 28.5561 20.1907C27.4662 20.1907 26.7577 20.1907 26.6215 20.1907C26.676 20.9264 26.8667 23.1607 27.0575 25.9672C27.4389 31.4713 27.7114 39.1007 26.458 41.7165C28.6106 41.8528 57.1937 41.2261 69.2645 40.4904C69.6188 34.3324 69.6187 29.7002 69.4553 26.158Z" fill="#F0E2C2"/>
<path d="M68.3936 18.0654C69.2382 20.8447 69.4835 25.9401 69.4835 26.1581H70.9004C70.9004 25.3134 70.2192 19.2098 68.3936 18.0654Z" fill="#C36E40"/>
<path d="M76.6461 4.46875L67.082 4.87747L77.1365 20.763V20.7903L76.6733 4.46875H76.6461Z" fill="#F6E3C1"/>
<path d="M76.5674 0.763038L76.6764 4.46876L77.1396 20.7903L77.848 44.605L77.9843 49.6459L83.0796 49.5641V44.6867L83.1886 0.0273438L76.5674 0.763038Z" fill="#C0C1C3"/>
</svg>
