<svg width="19" height="32" viewBox="0 0 19 32" fill="none" xmlns="http://www.w3.org/2000/svg">
<path d="M11.9983 2.45024H6.9985C6.69492 2.45024 6.44854 2.69663 6.44854 3.00021C6.44854 3.30379 6.69492 3.55017 6.9985 3.55017H11.9983C12.3019 3.55017 12.5483 3.30379 12.5483 3.00021C12.5483 2.69663 12.3019 2.45024 11.9983 2.45024Z" fill="#8D4896" stroke="#8D4896" stroke-width="0.1"/>
<path d="M15.4985 2.45024H14.9985C14.6949 2.45024 14.4485 2.69663 14.4485 3.00021C14.4485 3.30379 14.6949 3.55017 14.9985 3.55017H15.4985C15.802 3.55017 16.0484 3.30379 16.0484 3.00021C16.0484 2.69663 15.802 2.45024 15.4985 2.45024Z" fill="#8D4896" stroke="#8D4896" stroke-width="0.1"/>
<path d="M10.1199 26.4493H8.87845C8.09037 26.4493 7.44902 27.0906 7.44902 27.8787V28.1202C7.44902 28.9083 8.09038 29.5492 8.87798 29.5492H10.1194C10.9075 29.5492 11.5488 28.9083 11.5488 28.1202V27.8787C11.5488 27.0906 10.9075 26.4493 10.1199 26.4493ZM10.4489 28.1202C10.4489 28.3016 10.3013 28.4492 10.1199 28.4492H8.87845C8.69655 28.4492 8.54895 28.3015 8.54895 28.1202V27.8787C8.54895 27.6968 8.69654 27.5492 8.87845 27.5492H10.1194C10.3013 27.5492 10.4489 27.6968 10.4489 27.8787V28.1202Z" fill="#8D4896" stroke="#8D4896" stroke-width="0.1"/>
<path d="M16.9494 29.1915V29.2012C16.9442 29.6142 16.6066 29.949 16.1925 29.949H2.80744C2.38958 29.949 2.04999 29.6089 2.04999 29.192V2.80744C2.04999 2.39003 2.3896 2.04999 2.80744 2.04999H16.192C16.6098 2.04999 16.9494 2.39009 16.9494 2.80744V29.1915ZM16.1925 0.95H2.80744C1.78335 0.95 0.95 1.78335 0.95 2.80744V29.1915C0.95 30.2156 1.78335 31.049 2.80744 31.049H16.192C17.216 31.049 18.0494 30.2156 18.0494 29.1921V2.80744C18.0495 1.78336 17.2161 0.95 16.1925 0.95Z" fill="#8D4896" stroke="#8D4896" stroke-width="0.1"/>
<path d="M17.4999 3.95H1.50045C1.19687 3.95 0.950488 4.19638 0.950488 4.49996V25.4992C0.950488 25.8028 1.19687 26.0492 1.50045 26.0492H17.4999C17.8035 26.0492 18.0499 25.8028 18.0499 25.4992V4.49996C18.0499 4.19638 17.8035 3.95 17.4999 3.95ZM16.9499 24.9493H2.05042V5.04999H16.9499V24.9493Z" fill="#8D4896" stroke="#8D4896" stroke-width="0.1"/>
</svg>
