<svg width="29" height="30" viewBox="0 0 29 30" fill="none" xmlns="http://www.w3.org/2000/svg">
<g clip-path="url(#clip0)">
<path d="M27.6012 15.388C27.4796 15.1413 27.4796 14.8577 27.6012 14.611L28.7286 12.3218C29.3561 11.0474 28.859 9.52811 27.5964 8.86367L25.3292 7.66955C25.0848 7.54065 24.9171 7.31155 24.8687 7.04085L24.4254 4.53133C24.1787 3.1339 22.8765 2.19524 21.4616 2.39387L18.9205 2.7507C18.646 2.78937 18.375 2.70148 18.1761 2.51047L16.3315 0.739219C15.3044 -0.246895 13.6953 -0.246895 12.6682 0.739219L10.8235 2.51106C10.6246 2.70207 10.3531 2.78937 10.0792 2.75129L7.53804 2.39446C6.12313 2.19583 4.82097 3.13448 4.57423 4.53192L4.13093 7.04144C4.08311 7.31214 3.91547 7.54123 3.6711 7.67014L1.40382 8.86425C0.140025 9.52869 -0.356993 11.048 0.270477 12.3224L1.39733 14.611C1.51893 14.8577 1.51893 15.1413 1.39733 15.388L0.270477 17.6772C-0.356993 18.9516 0.140025 20.4709 1.40264 21.1353L3.66991 22.3294C3.91429 22.4583 4.08252 22.6874 4.13034 22.9581L4.57364 25.4676C4.79853 26.7397 5.89705 27.6315 7.16026 27.6315C7.28481 27.6315 7.41054 27.6227 7.53745 27.6051L10.0786 27.2483C10.3525 27.2096 10.624 27.2975 10.823 27.4885L12.6676 29.2598C13.1811 29.7531 13.8399 29.9998 14.4992 29.9998C15.158 29.9998 15.8173 29.7531 16.3309 29.2603L18.1755 27.4891C18.3744 27.2981 18.646 27.2108 18.9199 27.2489L21.461 27.6057C22.8765 27.8043 24.1775 26.8657 24.4248 25.4682L24.8681 22.9587C24.916 22.688 25.0836 22.4589 25.3286 22.33L27.5958 21.1359C28.8585 20.4709 29.3555 18.9521 28.728 17.6778L27.6012 15.388ZM26.7795 19.6072L24.5122 20.8013C23.7891 21.1822 23.2939 21.8595 23.1522 22.6593L22.7089 25.1688C22.6251 25.6417 22.1853 25.9592 21.706 25.8918L19.1648 25.535C18.3544 25.4208 17.5522 25.6797 16.9643 26.2446L15.1196 28.0158C14.7719 28.3492 14.2277 28.3492 13.88 28.0158L12.0354 26.2446C11.5384 25.767 10.8885 25.5087 10.2097 25.5087C10.0851 25.5087 9.95997 25.5174 9.83483 25.535L7.29366 25.8918C6.81494 25.9592 6.37459 25.6417 6.29077 25.1688L5.84747 22.6593C5.7058 21.8589 5.21055 21.1822 4.48746 20.8013L2.22018 19.6072C1.79282 19.3822 1.62459 18.8684 1.83709 18.4371L2.96453 16.1479C3.32401 15.4178 3.32401 14.5811 2.96453 13.8511L1.83709 11.5619C1.62459 11.1306 1.79282 10.6168 2.22018 10.3918L4.48746 9.19765C5.21055 8.81679 5.70639 8.13946 5.84747 7.33967L6.29077 4.83015C6.37459 4.35731 6.81435 4.03974 7.29366 4.10712L9.83483 4.46395C10.6453 4.57762 11.4475 4.31923 12.0354 3.75439L13.88 1.98314C14.2277 1.64975 14.7719 1.64975 15.1196 1.98314L16.9643 3.75439C17.5522 4.31923 18.3544 4.57821 19.1648 4.46395L21.706 4.10712C22.1847 4.03974 22.6251 4.35731 22.7089 4.83015L23.1522 7.33967C23.2939 8.14005 23.7891 8.81679 24.5122 9.19765L26.7795 10.3918C27.2068 10.6168 27.3751 11.1306 27.1626 11.5619L26.0351 13.8505C25.6756 14.5805 25.6756 15.4173 26.0351 16.1473L27.1626 18.4359C27.3745 18.8684 27.2063 19.3822 26.7795 19.6072Z" fill="#894590"/>
<path d="M20.8684 8.67861C20.5278 8.34053 19.9765 8.34053 19.6359 8.67861L8.13191 20.0977C7.79132 20.4358 7.79132 20.983 8.13191 21.3211C8.30191 21.4899 8.52504 21.5748 8.74816 21.5748C8.97129 21.5748 9.19442 21.4905 9.36442 21.3211L20.8684 9.90202C21.2084 9.56394 21.2084 9.0161 20.8684 8.67861Z" fill="#FFB71B"/>
<path d="M11.0137 7.21387C9.25167 7.21387 7.81787 8.63708 7.81787 10.3861C7.81787 12.1351 9.25167 13.5583 11.0137 13.5583C12.7757 13.5583 14.2095 12.1351 14.2095 10.3861C14.2095 8.63708 12.7757 7.21387 11.0137 7.21387ZM11.0137 11.8274C10.2126 11.8274 9.56098 11.1806 9.56098 10.3855C9.56098 9.59038 10.2126 8.94352 11.0137 8.94352C11.8147 8.94352 12.4663 9.59038 12.4663 10.3855C12.4663 11.1812 11.8147 11.8274 11.0137 11.8274Z" fill="#FFB71B"/>
<path d="M17.9858 16.4415C16.2238 16.4415 14.79 17.8647 14.79 19.6137C14.79 21.3627 16.2238 22.7859 17.9858 22.7859C19.7478 22.7859 21.1816 21.3627 21.1816 19.6137C21.1816 17.8647 19.7478 16.4415 17.9858 16.4415ZM17.9858 21.0557C17.1848 21.0557 16.5331 20.4088 16.5331 19.6137C16.5331 18.8186 17.1848 18.1718 17.9858 18.1718C18.7868 18.1718 19.4385 18.8186 19.4385 19.6137C19.4385 20.4088 18.7868 21.0557 17.9858 21.0557Z" fill="#FFB71B"/>
</g>
<defs>
<clipPath id="clip0">
<rect width="29" height="30" fill="white"/>
</clipPath>
</defs>
</svg>
