<svg width="22" height="30" viewBox="0 0 22 30" fill="none" xmlns="http://www.w3.org/2000/svg">
<path d="M21.3484 7.31944H15.2489C14.9122 7.31944 14.6389 7.04497 14.6389 6.70947V0.609973C14.6389 0.273278 14.3656 0 14.0289 0H1.82986C0.820979 0 0 0.820979 0 1.82986V27.4479C0 28.4568 0.820979 29.2778 1.82986 29.2778H20.1285C21.1374 29.2778 21.9583 28.4568 21.9583 27.4479V7.92942C21.9583 7.59272 21.6851 7.31944 21.3484 7.31944ZM20.7384 27.4479C20.7384 27.7834 20.4652 28.0579 20.1285 28.0579H1.82986C1.49317 28.0579 1.21989 27.7834 1.21989 27.4479V1.82986C1.21989 1.49437 1.49317 1.21989 1.82986 1.21989H13.419V6.70947C13.419 7.71835 14.24 8.53933 15.2489 8.53933H20.7384V27.4479Z" fill="white"/>
<path d="M21.7793 7.49908L14.4599 0.179632C14.222 -0.0582498 13.8352 -0.0582498 13.5974 0.179632C13.3595 0.417514 13.3595 0.804244 13.5974 1.04213L20.9168 8.36157C21.0364 8.47988 21.1925 8.5397 21.3486 8.5397C21.5048 8.5397 21.6609 8.47994 21.7793 8.36157C22.0172 8.12369 22.0172 7.73696 21.7793 7.49908Z" fill="white"/>
<path d="M6.02639 13.725C6.47906 13.725 6.87339 13.7997 7.20939 13.949C7.54539 14.0983 7.80439 14.313 7.98639 14.593C8.16839 14.873 8.25939 15.1997 8.25939 15.573C8.25939 15.9463 8.16839 16.273 7.98639 16.553C7.80439 16.833 7.54539 17.0477 7.20939 17.197C6.87339 17.3463 6.47906 17.421 6.02639 17.421H5.31939V18.625H3.66739V13.725H6.02639ZM5.92139 16.147C6.14539 16.147 6.31339 16.098 6.42539 16C6.53739 15.8973 6.59339 15.755 6.59339 15.573C6.59339 15.391 6.53739 15.251 6.42539 15.153C6.31339 15.0503 6.14539 14.999 5.92139 14.999H5.31939V16.147H5.92139ZM8.80118 13.725H11.2162C11.7622 13.725 12.2428 13.8253 12.6582 14.026C13.0782 14.222 13.4025 14.5043 13.6312 14.873C13.8645 15.2417 13.9812 15.6757 13.9812 16.175C13.9812 16.6743 13.8645 17.1083 13.6312 17.477C13.4025 17.8457 13.0782 18.1303 12.6582 18.331C12.2428 18.527 11.7622 18.625 11.2162 18.625H8.80118V13.725ZM11.1462 17.337C11.5008 17.337 11.7832 17.2367 11.9932 17.036C12.2078 16.8307 12.3152 16.5437 12.3152 16.175C12.3152 15.8063 12.2078 15.5217 11.9932 15.321C11.7832 15.1157 11.5008 15.013 11.1462 15.013H10.4532V17.337H11.1462ZM16.2364 14.971V15.811H18.2804V17.057H16.2364V18.625H14.5844V13.725H18.5674V14.971H16.2364Z" fill="white"/>
</svg>
