<svg width="27" height="31" viewBox="0 0 27 31" fill="none" xmlns="http://www.w3.org/2000/svg">
<path d="M18.9952 8.39489C18.7103 8.42911 18.6362 8.33013 18.5532 8.11751C17.5299 5.50373 16.5002 2.89117 15.4718 0.27983L15.3409 0L15.2061 0.295715C14.0857 3.26509 12.9641 6.23324 11.8488 9.20505C11.7798 9.38835 11.7006 9.47511 11.4809 9.4971C10.8256 9.56065 10.1727 9.6584 9.51994 9.74394C6.88574 10.0849 4.25025 10.4258 1.61604 10.7679C1.0846 10.8364 0.553158 10.9085 0 10.9818L1.61604 11.78C4.5313 13.3087 6.13584 14.2505 9.05749 15.7682C9.28488 15.8868 9.31043 15.9808 9.22484 16.2069C7.64968 20.3897 6.08475 24.5761 4.51725 28.7614C4.24259 29.4933 3.9692 30.2253 3.69582 30.9572C3.72009 30.9719 3.74436 30.9853 3.76863 31C3.83634 30.9401 3.90788 30.8839 3.97048 30.8204C7.73783 27.0103 11.5052 23.2014 15.2661 19.3852C15.4399 19.2093 15.551 19.1689 15.7912 19.296C18.6273 20.7942 21.4722 22.2776 24.316 23.7611C24.4194 23.8149 24.514 23.9114 24.6481 23.8931C24.689 23.8112 24.6366 23.7623 24.6162 23.7085C23.4153 20.4545 22.217 17.1991 21.0072 13.9475C20.9306 13.7434 20.9625 13.6237 21.1145 13.4709C23.0155 11.5598 24.4931 9.97604 26.3864 8.06L27 7.47109C24.3172 7.77658 21.6549 8.07474 18.9952 8.39489Z" fill="#FFAF33"/>
</svg>
