<svg width="28" height="24" viewBox="0 0 28 24" fill="none" xmlns="http://www.w3.org/2000/svg">
<path d="M18.9138 20.8245C18.9138 20.7639 18.8356 20.7458 18.8356 20.7458C18.0583 20.6073 17.3298 20.069 16.7797 19.509C16.0197 18.7079 15.3643 17.8168 14.8286 16.8563C14.7412 16.6582 14.8644 16.6364 14.8644 16.6364C16.3795 16.0583 16.6279 14.5673 16.6279 14.1629C16.6279 12.272 14.8065 11.7201 13.1681 11.7201C12.55 11.7201 12.3402 11.7699 11.6963 11.7699C10.9475 11.7699 10.5004 11.7201 10.3827 11.7219C10.3589 11.7229 10.3355 11.7287 10.314 11.7387C10.2925 11.7488 10.2733 11.7631 10.2575 11.7807C10.2417 11.7982 10.2296 11.8187 10.2221 11.841C10.2145 11.8632 10.2116 11.8867 10.2134 11.9101C10.2134 12.3679 11.2695 11.5943 11.2732 13.1134L11.2796 19.1905C11.2796 20.5992 10.2778 20.2074 10.276 20.5476C10.276 20.6607 10.4075 20.7041 10.483 20.7041C10.8574 20.7041 11.2814 20.6499 11.8877 20.6481C12.6512 20.6481 12.8453 20.7014 13.2841 20.7005C13.6033 20.7005 13.6575 20.6345 13.652 20.5458C13.652 20.1152 12.2988 20.7747 12.297 18.949L12.2878 12.5416C12.2878 12.1625 12.5684 12.1625 12.9814 12.1634C14.467 12.1589 15.6417 12.9723 15.6693 14.5049C15.6887 15.5453 14.8985 16.536 13.5821 16.536C13.4256 16.5437 13.2687 16.5355 13.1139 16.5116C13.0979 16.509 13.0815 16.5099 13.0659 16.5144C13.0503 16.5189 13.036 16.5268 13.024 16.5375C13.0119 16.5482 13.0025 16.5614 12.9964 16.5762C12.9903 16.591 12.9877 16.607 12.9888 16.6229C12.9888 16.7414 13.0808 16.8038 13.1939 16.831C13.3402 16.8907 13.6722 16.9468 14.0218 17.4643C14.904 18.8793 15.8975 21 18.154 20.9928C18.9975 20.9982 18.9138 20.8996 18.9138 20.8245Z" fill="#FFB71B"/>
<path d="M27.4063 6.07713C27.3956 6.04377 27.3821 6.01138 27.3658 5.98032L24.917 1.26121C24.4902 0.13933 23.4765 0 22.6394 0H4.95713C4.11818 0 3.1017 0.140235 2.69418 1.22954L0.228863 6.18027C0.213841 6.2095 0.20093 6.23973 0.190227 6.27074C0.011881 6.78851 -0.0420609 7.33988 0.0326336 7.8816C0.107328 8.42332 0.308627 8.94064 0.620739 9.393C0.903605 9.80696 1.28759 10.1445 1.73749 10.3746C1.79561 10.4032 1.84463 10.4469 1.87918 10.501C1.91374 10.5551 1.93251 10.6175 1.93343 10.6813V23.2762C1.93343 23.4682 2.01096 23.6523 2.14897 23.788C2.28699 23.9237 2.47417 24 2.66935 24H24.9308C25.126 24 25.3132 23.9237 25.4512 23.788C25.5892 23.6523 25.6667 23.4682 25.6667 23.2762V13.9031C25.6508 13.7227 25.5667 13.5547 25.4309 13.4323C25.2952 13.3099 25.1177 13.242 24.9336 13.242C24.7494 13.242 24.572 13.3099 24.4362 13.4323C24.3005 13.5547 24.2164 13.7227 24.2004 13.9031V22.2059C24.2004 22.2988 24.1629 22.3878 24.0962 22.4535C24.0294 22.5191 23.9388 22.556 23.8444 22.556H3.75114C3.65673 22.556 3.56618 22.5191 3.49941 22.4535C3.43265 22.3878 3.39514 22.2988 3.39514 22.2059V11.0071C3.39516 10.9228 3.42605 10.8414 3.48214 10.7778C3.53824 10.7141 3.61578 10.6725 3.70055 10.6605C4.44096 10.5624 5.12376 10.2145 5.63233 9.67618C5.66223 9.63679 5.70204 9.60573 5.74785 9.58605C5.79366 9.56638 5.84388 9.55878 5.89358 9.56399C5.94182 9.56407 5.98954 9.57382 6.03383 9.59264C6.07811 9.61147 6.11803 9.63897 6.15115 9.67346C6.45506 9.99533 6.82358 10.2516 7.23341 10.4262C7.64323 10.6008 8.08544 10.6897 8.53203 10.6875C8.97863 10.6853 9.4199 10.592 9.82792 10.4134C10.2359 10.2348 10.6018 9.9748 10.9024 9.64994C10.9714 9.58254 11.0646 9.54471 11.1618 9.54471C11.259 9.54471 11.3523 9.58254 11.4212 9.64994C11.728 9.96664 12.0969 10.2188 12.5056 10.3911C12.9144 10.5633 13.3545 10.6522 13.7992 10.6522C14.2439 10.6522 14.6839 10.5633 15.0927 10.3911C15.5015 10.2188 15.8704 9.96664 16.1771 9.64994C16.2105 9.61499 16.2509 9.58711 16.2956 9.56797C16.3404 9.54884 16.3886 9.53887 16.4374 9.53866C16.486 9.53882 16.5341 9.54869 16.5787 9.56766C16.6232 9.58664 16.6635 9.61432 16.6968 9.64904C17.1115 10.0897 17.6437 10.407 18.2328 10.5645C18.8219 10.7221 19.4442 10.7137 20.0287 10.5402C20.5759 10.3721 21.0719 10.0727 21.472 9.66894C21.5053 9.63536 21.545 9.60869 21.589 9.5905C21.6329 9.57232 21.6801 9.563 21.7278 9.56309C21.7894 9.58751 21.9182 9.60109 21.9853 9.67166C22.289 9.99081 22.6559 10.2454 23.0635 10.4197C23.471 10.5939 23.9106 10.6842 24.355 10.685H24.4792C25.4579 10.6497 26.3603 10.1485 26.95 9.31157C27.2751 8.84384 27.4856 8.30832 27.5647 7.7471C27.6439 7.18588 27.5897 6.61425 27.4063 6.07713ZM25.7238 8.48735C25.567 8.71185 25.3587 8.897 25.1159 9.0279C24.873 9.1588 24.6023 9.23179 24.3255 9.241C23.2925 9.241 22.4296 8.32269 22.4296 7.2361C22.4296 7.2361 22.4296 6.91582 22.4204 6.83078C22.383 6.65489 22.2804 6.49898 22.1326 6.39338C21.9847 6.28779 21.8023 6.24005 21.6206 6.25946C21.439 6.27887 21.2712 6.36404 21.1499 6.4984C21.0285 6.63276 20.9624 6.8067 20.9642 6.98639L20.9799 7.1592C20.9799 7.16643 20.9799 7.24967 20.9799 7.24967C20.9875 7.674 20.8553 8.08937 20.6032 8.43375C20.351 8.77814 19.9923 9.03307 19.5807 9.16048C19.4167 9.2126 19.2453 9.23886 19.0729 9.23829C18.0224 9.23829 17.1669 8.29555 17.1669 7.13567C17.151 6.95523 17.0668 6.78722 16.9311 6.66482C16.7954 6.54241 16.6179 6.47451 16.4338 6.47451C16.2496 6.47451 16.0721 6.54241 15.9364 6.66482C15.8007 6.78722 15.7165 6.95523 15.7006 7.13567C15.7006 8.29555 14.846 9.23919 13.7955 9.23919C12.745 9.23919 11.8913 8.29826 11.8913 7.14201C11.8754 6.96157 11.7912 6.79356 11.6555 6.67115C11.5198 6.54875 11.3423 6.48084 11.1581 6.48084C10.974 6.48084 10.7965 6.54875 10.6608 6.67115C10.5251 6.79356 10.4409 6.96157 10.425 7.14201C10.425 8.30098 9.56765 9.24371 8.51713 9.24371C7.48408 9.24371 6.65066 8.35074 6.61938 7.21167C6.61295 7.03229 6.536 6.86236 6.40475 6.73766C6.27349 6.61295 6.09816 6.54319 5.91566 6.54307C5.72575 6.53866 5.54125 6.6055 5.39962 6.73001C5.25799 6.85452 5.16984 7.02738 5.15307 7.21348L5.14295 7.30938C5.07211 8.42493 4.21109 9.33057 3.22404 9.33057C3.13399 9.33219 3.04393 9.32765 2.95451 9.317C2.72661 9.27632 2.50925 9.19136 2.31513 9.06708C2.12101 8.94281 1.95403 8.78171 1.82396 8.59321C1.64723 8.33361 1.5315 8.03855 1.4852 7.72947C1.4389 7.42039 1.46318 7.10505 1.55627 6.80635L4.02343 1.84114C4.02343 1.82757 4.04275 1.74434 4.04643 1.73167C4.0747 1.64911 4.13347 1.58001 4.21109 1.53806C4.30308 1.48649 4.48706 1.41773 4.95713 1.41773H22.6394C23.1472 1.41773 23.3891 1.4901 23.5022 1.67558C23.5205 1.71215 23.5362 1.74994 23.5491 1.78867L26.0062 6.55664C26.1106 6.87851 26.1395 7.21949 26.0906 7.55392C26.0417 7.88834 25.9162 8.20749 25.7238 8.48735Z" fill="#8C4799"/>
</svg>
