<svg width="35" height="35" viewBox="0 0 35 35" fill="none" xmlns="http://www.w3.org/2000/svg">
<path fill-rule="evenodd" clip-rule="evenodd" d="M9.0018 17.7049C9.0018 13.7367 8.9963 9.76844 9.00455 5.79744C9.01005 3.32244 10.3053 2.01893 12.7748 2.00793C16.281 1.99693 19.7873 1.99693 23.2935 2.01068C25.7685 2.01893 27.0555 3.32244 27.0583 5.80569C27.0638 13.7422 27.0638 21.6814 27.0555 29.6179C27.0555 32.0269 25.7685 33.3414 23.3485 33.3607C19.8038 33.3882 16.2563 33.3882 12.7115 33.3607C10.2998 33.3414 9.01005 32.0159 9.0073 29.6124C8.99905 25.6442 9.00455 21.6732 9.0018 17.7049Z" stroke="#523178" stroke-width="1.7"/>
<path d="M12.4214 7.53201L12.4214 7.53222C12.4173 9.54667 12.4178 11.5609 12.4183 13.5759C12.4185 14.2475 12.4187 14.9193 12.4187 15.5912M12.4214 7.53201L12.4187 15.5914C12.4187 15.5913 12.4187 15.5913 12.4187 15.5912M12.4214 7.53201C12.4226 6.77559 12.6195 6.28219 12.9248 5.9754C13.2299 5.66887 13.7208 5.47067 14.475 5.46819L14.4751 5.46819M12.4214 7.53201L14.4751 5.46819M12.4187 15.5912C12.4198 16.7442 12.4195 17.8959 12.4192 19.0473C12.4187 20.5816 12.4183 22.1153 12.4214 23.6507L12.4214 23.6508C12.4226 24.3775 12.6169 24.8659 12.9204 25.1746C13.223 25.4824 13.7054 25.6838 14.4334 25.69M12.4187 15.5912L14.4334 25.69M14.4334 25.69C14.4334 25.69 14.4335 25.69 14.4336 25.69L14.4294 26.1899L14.4334 25.69ZM14.4751 5.46819C16.8477 5.45994 19.2195 5.4572 21.5936 5.46819L21.5943 5.46819M14.4751 5.46819L21.5943 5.46819M21.5943 5.46819C22.3469 5.47067 22.8361 5.66873 23.14 5.97537M21.5943 5.46819L23.14 5.97537M23.6397 23.6572V23.6567V23.6572ZM23.6397 23.6572C23.6397 24.3856 23.4463 24.8715 23.1441 25.1777M23.6397 23.6572L23.1441 25.1777M23.14 5.97537C23.4445 6.28255 23.6411 6.77727 23.6424 7.53695L23.14 5.97537ZM23.1441 25.1777C22.8423 25.4834 22.359 25.6837 21.6251 25.69L23.1441 25.1777Z" fill="#523178" stroke="#523178"/>
<path d="M19.1796 29.4851C19.1796 30.1182 18.6648 30.6324 18.0296 30.6324C17.3955 30.6324 16.8823 30.1192 16.8823 29.4851C16.8823 28.851 17.3955 28.3379 18.0296 28.3379C18.6648 28.3379 19.1796 28.8521 19.1796 29.4851Z" fill="#523178" stroke="#523178"/>
</svg>
