<svg width="164" height="117" viewBox="0 0 164 117" fill="none" xmlns="http://www.w3.org/2000/svg">
<path d="M128.042 15.0374C126.121 15.278 125.622 14.5819 125.062 13.0866C118.164 -5.29486 111.224 -23.6678 104.292 -42.0321C104.05 -42.6594 103.982 -43.3899 103.267 -44C102.974 -43.2094 102.733 -42.5649 102.5 -41.9204C94.9483 -21.0382 87.3876 -0.164536 79.8699 20.7349C79.4049 22.0239 78.871 22.634 77.3898 22.7887C72.9722 23.2356 68.5718 23.923 64.1715 24.5246C46.4149 26.9222 28.6498 29.3198 10.8933 31.726C7.30239 32.1986 3.72009 32.7056 0 33.2212C0.602792 34.1407 1.39503 34.3384 2.0581 34.6993C21.7091 45.4498 41.3601 56.2088 61.0542 66.882C62.587 67.7155 62.7592 68.3772 62.1823 69.967C51.5645 99.3826 41.0157 128.824 30.4496 158.257C28.5982 163.404 26.7553 168.552 24.9125 173.699C25.0761 173.802 25.2397 173.897 25.4034 174C25.8598 173.579 26.342 173.184 26.7639 172.737C52.1587 145.942 77.5534 119.156 102.905 92.3188C104.076 91.0813 104.825 90.7977 106.444 91.6914C125.561 102.227 144.739 112.66 163.908 123.092C164.605 123.47 165.242 124.149 166.147 124.02C166.422 123.444 166.069 123.101 165.931 122.723C157.837 99.8381 149.759 76.945 141.604 54.0777C141.088 52.6425 141.303 51.8004 142.328 50.7262C155.141 37.286 167.903 23.8027 180.665 10.3281C181.156 9.81252 181.836 9.39144 182 8.53209C163.908 10.6891 145.962 12.7859 128.042 15.0374Z" fill="#8C4799"/>
</svg>
