<svg width="17" height="17" viewBox="0 0 17 17" fill="none" xmlns="http://www.w3.org/2000/svg">
<path d="M8.5 0C3.81323 0 0 3.81297 0 8.5C0 13.187 3.81323 17 8.5 17C13.1868 17 17 13.187 17 8.5C17 3.81297 13.1868 0 8.5 0ZM8.5 15.9538C4.38992 15.9538 1.04615 12.6101 1.04615 8.5C1.04615 4.38992 4.38992 1.04615 8.5 1.04615C12.6101 1.04615 15.9538 4.38992 15.9538 8.5C15.9538 12.6101 12.6101 15.9538 8.5 15.9538Z" fill="white"/>
<path d="M8.63559 5.98554C9.11876 5.98554 9.51044 5.59385 9.51044 5.11069C9.51044 4.62752 9.11876 4.23584 8.63559 4.23584C8.15243 4.23584 7.76074 4.62752 7.76074 5.11069C7.76074 5.59385 8.15243 5.98554 8.63559 5.98554Z" fill="white"/>
<path d="M8.40491 7.4126C8.11617 7.4126 7.88184 7.64694 7.88184 7.93567V12.3818C7.88184 12.6706 8.11617 12.9049 8.40491 12.9049C8.69365 12.9049 8.92799 12.6706 8.92799 12.3818V7.93567C8.92799 7.64667 8.69365 7.4126 8.40491 7.4126Z" fill="white"/>
</svg>
