<svg width="20" height="20" viewBox="0 0 20 20" fill="none" xmlns="http://www.w3.org/2000/svg">
<path d="M17.6034 0H2.39662C1.07173 0 0 1.1825 0 2.64432V17.3557C0 18.8175 1.07173 20 2.39662 20H17.5949C18.9198 20 19.9916 18.8175 19.9916 17.3557V2.64432C20 1.1825 18.9198 0 17.6034 0ZM18.9451 5.22346V17.3557C18.9451 18.175 18.346 18.8361 17.6034 18.8361H2.39662C1.65401 18.8361 1.05485 18.175 1.05485 17.3557V5.22346H18.9451ZM18.9451 2.64432V4.05959H1.05485V2.64432C1.05485 1.82495 1.65401 1.16387 2.39662 1.16387H17.5949C18.3376 1.16387 18.9451 1.83426 18.9451 2.64432Z" fill="#C6B5D9"/>
<path d="M4.50651 1.97412C4.1352 1.97412 3.83984 2.30932 3.83984 2.70969C3.83984 3.11006 4.14364 3.44526 4.50651 3.44526C4.86938 3.44526 5.17318 3.11006 5.17318 2.70969C5.17318 2.30932 4.87782 1.97412 4.50651 1.97412Z" fill="#C6B5D9"/>
<path d="M2.70036 1.97412C2.32905 1.97412 2.03369 2.30932 2.03369 2.70969C2.03369 3.11006 2.32905 3.45457 2.70036 3.45457C3.07167 3.45457 3.36702 3.11937 3.36702 2.719C3.36702 2.31863 3.07167 1.97412 2.70036 1.97412Z" fill="#C6B5D9"/>
<path d="M6.37956 1.97412C6.00825 1.97412 5.71289 2.30932 5.71289 2.70969C5.71289 3.11006 6.01669 3.44526 6.37956 3.44526C6.74243 3.44526 7.04622 3.11006 7.04622 2.70969C7.04622 2.30932 6.75086 1.97412 6.37956 1.97412Z" fill="#C6B5D9"/>
</svg>
