<svg width="31" height="19" viewBox="0 0 31 19" fill="none" xmlns="http://www.w3.org/2000/svg">
<path d="M15.366 19L9.958 11.85L15.158 5.012H10.842L7.8 9.094L4.836 5.012H0.286L5.486 11.954L0.104 19H4.524L7.696 14.71L10.764 19H15.366ZM22.5028 15.568L26.6888 11.616C29.2368 9.25 29.7308 7.638 29.7308 5.87C29.7308 2.568 27.0268 0.488 22.9708 0.488C19.6948 0.488 17.1468 1.814 15.7428 3.868L18.8108 5.844C19.6948 4.622 21.0208 4.024 22.5808 4.024C24.5048 4.024 25.4928 4.856 25.4928 6.286C25.4928 7.17 25.2068 8.106 23.5948 9.64L16.5748 16.27V19H30.3288V15.568H22.5028Z" fill="white"/>
</svg>
